<?xml version="1.0" encoding="utf-8"?>
<!-- Generator: Adobe Illustrator 24.1.0, SVG Export Plug-In . SVG Version: 6.00 Build 0)  -->
<svg version="1.1" id="Layer_1" xmlns="http://www.w3.org/2000/svg" xmlns:xlink="http://www.w3.org/1999/xlink" x="0px" y="0px"
	 viewBox="0 0 49.28 49.28" enable-background="new 0 0 49.28 49.28" xml:space="preserve">
<g id="Background">
	<g>
		<circle fill="#DDDDDD" cx="24.55" cy="25.19" r="24"/>
	</g>
</g>
<g id="Bkgd-B-Bld">
	<g>
		<circle fill="#046582" cx="44.05" cy="8.69" r="2.5"/>
	</g>
	<g>
		<circle fill="#046582" cx="47.05" cy="39.69" r="0.5"/>
	</g>
	<g>
		<circle fill="#046582" cx="4.05" cy="45.69" r="0.5"/>
	</g>
</g>
<g id="Bkgd-B-Med">
	<circle fill="#6E7582" cx="43.55" cy="42.19" r="2"/>
	<circle fill="#6E7582" cx="7.55" cy="6.19" r="1"/>
	<circle fill="#6E7582" cx="8.05" cy="43.69" r="0.5"/>
</g>
<g id="Bjdg-B-Sft">
	<g>
		<circle fill="#F39189" cx="5.55" cy="2.19" r="2"/>
	</g>
	<g>
		<circle fill="#F39189" cx="2.05" cy="2.69" r="0.5"/>
	</g>
	<g>
		<circle fill="#F39189" cx="7.55" cy="46.19" r="1"/>
	</g>
</g>
<g id="Bkdg-B-In">
	<circle fill="#FFFFFF" cx="11.05" cy="42.69" r="0.5"/>
</g>
<g id="Icon-Overcast">
	<g>
		<path fill="#DDDDDD" d="M29.07,18.03c-1.36-0.01-1.84-0.99-1.83-1.83c0-0.97,0.62-2,1.75-2c0.21,0,0.44,0.04,0.67,0.11l0.24,0.07
			l0.07-0.24c0.29-0.92,1.26-1.58,2.31-1.58c0.41,0,0.8,0.11,1.14,0.31l0.2,0.13l0.13-0.2c0.52-0.77,1.38-1.21,2.37-1.21
			c1.37,0,2.93,0.89,3.11,2.55l0.02,0.15l0.14,0.05c0.71,0.27,1.21,1,1.21,1.77c0,1.05-0.85,1.91-1.91,1.91h-9.62V18.03z"/>
		<path d="M36.12,11.84L36.12,11.84c1.26,0,2.7,0.82,2.86,2.33l0.03,0.3l0.29,0.11c0.62,0.23,1.05,0.87,1.05,1.54
			c0,0.91-0.74,1.66-1.66,1.66h-9.62c-1.17-0.01-1.59-0.82-1.59-1.58c0-0.85,0.53-1.75,1.5-1.75c0.19,0,0.39,0.03,0.59,0.1
			l0.47,0.15l0.15-0.47c0.26-0.82,1.13-1.41,2.07-1.41c0.37,0,0.71,0.1,1,0.28l0.41,0.25l0.27-0.4
			C34.42,12.24,35.21,11.84,36.12,11.84 M36.12,11.34c-0.99,0-1.97,0.41-2.58,1.32c-0.39-0.24-0.83-0.35-1.27-0.35
			c-1.1,0-2.21,0.69-2.54,1.76c-0.26-0.08-0.51-0.12-0.74-0.12c-2.47,0-2.88,4.31,0.09,4.33h9.62c1.19,0,2.16-0.97,2.16-2.16
			c0-0.89-0.56-1.7-1.37-2.01C39.29,12.38,37.69,11.34,36.12,11.34L36.12,11.34z"/>
	</g>
	<g>
		<path fill="#DDDDDD" d="M9.63,21.44c-1.23,0-2.24-1-2.24-2.24c0-0.91,0.58-1.76,1.42-2.08l0.14-0.05l0.02-0.15
			c0.22-1.93,2.03-2.98,3.63-2.98c1.15,0,2.16,0.51,2.77,1.41l0.13,0.2l0.2-0.13c0.39-0.24,0.85-0.37,1.33-0.37
			c1.22,0,2.36,0.78,2.7,1.85l0.07,0.24l0.24-0.07c0.27-0.08,0.53-0.13,0.78-0.13c1.33,0,2.05,1.21,2.05,2.34
			c0,0.99-0.56,2.14-2.15,2.15l0,0L9.63,21.44L9.63,21.44z"/>
		<path d="M12.6,14.19c1.07,0,2,0.47,2.56,1.3l0.27,0.4l0.41-0.25c0.35-0.22,0.76-0.33,1.2-0.33c1.12,0,2.15,0.71,2.46,1.68
			l0.15,0.47l0.47-0.15c0.25-0.08,0.48-0.11,0.71-0.11c1.17,0,1.8,1.08,1.8,2.09c0,0.91-0.5,1.89-1.9,1.9H9.63
			c-1.1,0-1.99-0.89-1.99-1.99c0-0.8,0.51-1.56,1.26-1.84l0.29-0.11l0.03-0.3C9.42,15.15,11.11,14.19,12.6,14.19 M12.6,13.69
			c-1.81,0-3.65,1.2-3.88,3.2c-0.93,0.35-1.58,1.29-1.58,2.31c0,1.37,1.11,2.49,2.49,2.49h11.09c3.42-0.02,2.95-4.99,0.1-5
			c-0.26,0-0.55,0.04-0.85,0.14c-0.39-1.23-1.67-2.03-2.93-2.03c-0.51,0-1.01,0.13-1.46,0.4C14.87,14.16,13.74,13.69,12.6,13.69
			L12.6,13.69z"/>
	</g>
	<g>
		<path d="M38.8,14.63c-0.82-0.08-1.7,0.51-1.94,1.39l-0.14-0.03c0.12-0.97,1.02-1.82,2.08-1.86C38.8,14.13,38.8,14.63,38.8,14.63z"
			/>
	</g>
	<g>
		<path d="M9.73,16.98c1.28,0.05,2.35,1.07,2.5,2.24l-0.17,0.04c-0.28-1.06-1.34-1.76-2.33-1.67V16.98z"/>
	</g>
	<line fill="none" stroke="#000000" stroke-width="0.5" stroke-miterlimit="10" x1="11.55" y1="20.57" x2="15.45" y2="20.57"/>
	<line fill="none" stroke="#000000" stroke-width="0.5" stroke-miterlimit="10" x1="19.88" y1="20.57" x2="20.88" y2="20.57"/>
	<line fill="none" stroke="#000000" stroke-width="0.5" stroke-miterlimit="10" x1="29.36" y1="17.18" x2="33.26" y2="17.18"/>
	<line fill="none" stroke="#000000" stroke-width="0.5" stroke-miterlimit="10" x1="33.96" y1="17.18" x2="34.96" y2="17.18"/>
</g>
<g id="Icon-Sun">
	<g>
		<path fill="#F39189" d="M25.01,32.29c-2.04,0-3.94-0.74-5.21-2.04c-1.19-1.21-1.8-2.85-1.77-4.75c-0.03-1.91,0.58-3.55,1.77-4.76
			c1.28-1.3,3.18-2.04,5.21-2.04c2.04,0,3.94,0.74,5.21,2.04c1.19,1.21,1.8,2.85,1.77,4.75c0.03,1.91-0.58,3.55-1.77,4.76
			C28.95,31.55,27.05,32.29,25.01,32.29z"/>
		<path d="M25.01,18.46v0.5c1.97,0,3.8,0.72,5.04,1.97c1.14,1.16,1.73,2.74,1.7,4.58c0.03,1.83-0.56,3.41-1.7,4.57
			c-1.23,1.25-3.07,1.97-5.04,1.97s-3.81-0.72-5.04-1.97c-1.14-1.16-1.73-2.74-1.7-4.58c-0.03-1.83,0.56-3.41,1.7-4.57
			c1.23-1.25,3.07-1.97,5.04-1.97L25.01,18.46 M25.01,18.46c-3.65,0-7.31,2.35-7.24,7.04c-0.07,4.7,3.58,7.04,7.24,7.04
			c3.65,0,7.31-2.35,7.24-7.04C32.32,20.8,28.66,18.46,25.01,18.46L25.01,18.46z"/>
	</g>
	<g>
		<path d="M27.29,20.02c1.1,0.34,2.12,1.02,2.85,1.95l-0.41,0.29c-0.59-0.91-1.45-1.68-2.48-2.13L27.29,20.02z"/>
	</g>
	<g>
		<path d="M23.21,31.17c-1.1-0.33-2.11-1-2.86-1.93l0.41-0.29c0.57,0.93,1.44,1.69,2.47,2.15L23.21,31.17z"/>
	</g>
	<g>
		<path fill="#F39189" d="M23.28,17.93c-0.07-0.01-0.21-0.09-0.29-0.22s-0.09-0.29-0.03-0.43l1.44-3.08
			c0.08-0.16,0.23-0.26,0.41-0.26s0.33,0.1,0.41,0.26l1.44,3.08c0.07,0.14,0.06,0.3-0.03,0.43c-0.08,0.12-0.2,0.2-0.34,0.21
			c-0.51-0.16-1.01-0.24-1.5-0.24C24.27,17.67,23.77,17.75,23.28,17.93z"/>
		<path d="M24.8,14.18c0.05,0,0.13,0.01,0.18,0.11l1.44,3.08c0.04,0.09,0.01,0.16-0.01,0.19s-0.05,0.07-0.11,0.08
			c-0.51-0.16-1.02-0.24-1.52-0.24c-0.49,0-0.99,0.08-1.47,0.24c-0.06-0.02-0.09-0.06-0.11-0.08c-0.02-0.03-0.05-0.1-0.01-0.19
			l1.44-3.08C24.67,14.2,24.75,14.18,24.8,14.18 M24.8,13.68c-0.25,0-0.51,0.13-0.63,0.4l-1.44,3.08c-0.22,0.46,0.12,0.99,0.63,0.99
			c0.45-0.16,0.92-0.24,1.41-0.24c0.47,0,0.96,0.08,1.46,0.24c0.51,0,0.85-0.53,0.63-0.99l-1.44-3.08
			C25.31,13.82,25.05,13.68,24.8,13.68L24.8,13.68z"/>
	</g>
	<g>
		<path fill="#F39189" d="M24.88,37.07c-0.18,0-0.33-0.1-0.41-0.26l-1.44-3.08c-0.07-0.14-0.06-0.3,0.03-0.43
			c0.08-0.13,0.22-0.21,0.38-0.21c0.4,0.16,0.91,0.24,1.41,0.24s1.02-0.09,1.54-0.26c0.08,0.01,0.22,0.09,0.3,0.22
			s0.09,0.29,0.03,0.43l-1.44,3.08C25.21,36.97,25.06,37.07,24.88,37.07z"/>
		<path d="M26.37,33.35c0.06,0.02,0.1,0.06,0.11,0.08c0.02,0.03,0.05,0.1,0.01,0.19l-1.44,3.08c-0.05,0.1-0.13,0.11-0.18,0.11
			s-0.13-0.01-0.18-0.11l-1.44-3.08c-0.04-0.09-0.01-0.16,0.01-0.19s0.05-0.07,0.11-0.08c0.48,0.16,0.97,0.24,1.47,0.24
			C25.35,33.58,25.86,33.5,26.37,33.35 M26.31,32.84c-0.51,0.17-0.99,0.24-1.46,0.24c-0.49,0-0.96-0.08-1.41-0.24
			c-0.51,0-0.85,0.53-0.63,0.99l1.44,3.08c0.13,0.27,0.38,0.4,0.63,0.4s0.51-0.13,0.63-0.4l1.44-3.08
			C27.16,33.37,26.83,32.84,26.31,32.84L26.31,32.84z"/>
	</g>
	<g>
		<path fill="#F39189" d="M33.36,27.51c-0.22,0-0.45-0.17-0.45-0.45c0.33-0.89,0.33-1.91-0.01-2.95c0.01-0.2,0.25-0.37,0.46-0.37
			c0.06,0,0.13,0.01,0.19,0.04l3.08,1.44c0.16,0.08,0.26,0.23,0.26,0.41s-0.1,0.33-0.26,0.41l-3.08,1.44
			C33.48,27.49,33.42,27.51,33.36,27.51z"/>
		<path d="M33.36,23.99L33.36,23.99c0.03,0,0.06,0.01,0.08,0.02l3.08,1.44c0.1,0.05,0.11,0.13,0.11,0.18s-0.01,0.13-0.11,0.18
			l-3.08,1.44c-0.03,0.01-0.06,0.02-0.08,0.02c-0.08,0-0.16-0.05-0.19-0.14c0.31-0.96,0.31-1.96,0-2.98
			C33.19,24.04,33.28,23.99,33.36,23.99 M33.36,23.49c-0.37,0-0.7,0.3-0.7,0.7c0.34,1.03,0.31,1.98,0,2.87c0,0.4,0.33,0.7,0.7,0.7
			c0.1,0,0.2-0.02,0.29-0.07l3.08-1.44c0.54-0.25,0.54-1.02,0-1.27l-3.08-1.44C33.55,23.51,33.45,23.49,33.36,23.49L33.36,23.49z"/>
	</g>
	<g>
		<path fill="#F39189" d="M16.68,27.47c-0.06,0-0.13-0.01-0.19-0.04l-3.08-1.44c-0.16-0.08-0.26-0.23-0.26-0.41s0.1-0.33,0.26-0.41
			l3.08-1.44c0.06-0.03,0.13-0.04,0.19-0.04c0.22,0,0.45,0.17,0.45,0.45c-0.33,0.96-0.33,1.98,0.01,2.95
			c-0.01,0.04-0.06,0.15-0.15,0.24C16.91,27.42,16.8,27.47,16.68,27.47z"/>
		<path d="M16.68,23.95c0.08,0,0.17,0.05,0.19,0.14c-0.31,1.02-0.31,2.02,0,2.98c-0.03,0.09-0.11,0.14-0.19,0.14
			c-0.03,0-0.06-0.01-0.08-0.02l-3.08-1.44c-0.1-0.05-0.11-0.13-0.11-0.18s0.01-0.13,0.11-0.18l3.08-1.44
			C16.62,23.95,16.65,23.95,16.68,23.95 M16.68,23.45c-0.1,0-0.2,0.02-0.29,0.07l-3.08,1.44c-0.54,0.25-0.54,1.02,0,1.27l3.08,1.44
			c0.1,0.05,0.2,0.07,0.29,0.07c0.37,0,0.7-0.3,0.7-0.7c-0.31-0.89-0.34-1.84,0-2.87C17.38,23.74,17.05,23.45,16.68,23.45
			L16.68,23.45z"/>
	</g>
	<g>
		<path fill="#F39189" d="M16,33.02c-0.15,0-0.3-0.08-0.38-0.22c-0.08-0.13-0.09-0.29-0.02-0.44l1.55-3.03
			c0.08-0.15,0.23-0.24,0.4-0.24c0.14,0,0.27,0.06,0.35,0.17c0.33,0.96,0.96,1.76,1.83,2.32c0.03,0.07,0.06,0.22,0.01,0.37
			s-0.17,0.25-0.32,0.29l-3.31,0.77C16.07,33.02,16.04,33.02,16,33.02z"/>
		<path d="M17.55,29.35c0.03,0,0.08,0.01,0.12,0.04c0.38,1,1,1.79,1.84,2.35c0.02,0.06,0.01,0.11,0,0.14
			c-0.01,0.04-0.05,0.11-0.14,0.13l-3.31,0.77c-0.02,0-0.03,0.01-0.05,0.01c-0.1,0-0.15-0.07-0.17-0.1
			c-0.03-0.04-0.05-0.11-0.01-0.19l1.55-3.03C17.42,29.36,17.52,29.35,17.55,29.35 M17.55,28.85c-0.25,0-0.5,0.13-0.62,0.38
			l-1.55,3.03c-0.24,0.48,0.12,1.02,0.62,1.02c0.05,0,0.11-0.01,0.16-0.02l3.31-0.77c0.5-0.12,0.71-0.71,0.39-1.11
			c-0.79-0.51-1.4-1.24-1.77-2.26C17.96,28.93,17.76,28.85,17.55,28.85L17.55,28.85z"/>
	</g>
	<g>
		<path fill="#F39189" d="M32.36,21.86c-0.14,0-0.27-0.06-0.35-0.17c-0.29-0.9-0.92-1.71-1.82-2.32c-0.04-0.07-0.06-0.22-0.01-0.37
			c0.05-0.15,0.17-0.25,0.32-0.29l3.31-0.77c0.04-0.01,0.07-0.01,0.11-0.01c0.15,0,0.3,0.08,0.38,0.22
			c0.08,0.13,0.09,0.29,0.02,0.44l-1.55,3.03C32.68,21.77,32.53,21.86,32.36,21.86z"/>
		<path d="M33.91,18.19c0.1,0,0.15,0.07,0.17,0.1c0.03,0.04,0.05,0.11,0.01,0.19l-1.55,3.03c-0.05,0.1-0.14,0.11-0.18,0.11
			c-0.03,0-0.07-0.01-0.11-0.04c-0.34-0.95-0.96-1.74-1.84-2.35c-0.02-0.06-0.01-0.11,0-0.14c0.01-0.04,0.05-0.11,0.14-0.13
			l3.31-0.77C33.88,18.19,33.89,18.19,33.91,18.19 M33.91,17.69c-0.05,0-0.11,0.01-0.16,0.02l-3.31,0.77
			c-0.5,0.12-0.71,0.71-0.39,1.11c0.9,0.6,1.47,1.37,1.77,2.26c0.14,0.18,0.35,0.27,0.55,0.27c0.25,0,0.5-0.13,0.62-0.38l1.55-3.03
			C34.77,18.23,34.41,17.69,33.91,17.69L33.91,17.69z"/>
	</g>
	<g>
		<path fill="#F39189" d="M33.91,33.31c-0.03,0-0.07,0-0.11-0.01l-3.31-0.77c-0.15-0.04-0.27-0.14-0.32-0.29s-0.03-0.3,0.07-0.43
			c0.8-0.5,1.43-1.3,1.81-2.33c0.05-0.04,0.17-0.1,0.31-0.1c0.17,0,0.32,0.09,0.4,0.24l1.55,3.03c0.07,0.14,0.07,0.3-0.02,0.44
			C34.2,33.22,34.06,33.31,33.91,33.31z"/>
		<path d="M32.36,29.63c0.04,0,0.13,0.01,0.18,0.11l1.55,3.03c0.04,0.08,0.02,0.15-0.01,0.19c-0.01,0.02-0.07,0.1-0.17,0.1
			c-0.02,0-0.03,0-0.05-0.01l-3.31-0.77c-0.09-0.02-0.13-0.09-0.14-0.13c-0.01-0.03-0.02-0.08,0-0.14c0.84-0.56,1.45-1.35,1.84-2.35
			C32.28,29.64,32.32,29.63,32.36,29.63 M32.36,29.13c-0.2,0-0.41,0.09-0.55,0.27c-0.37,1.02-0.97,1.75-1.77,2.26
			c-0.31,0.4-0.1,1,0.39,1.11l3.31,0.77c0.06,0.01,0.11,0.02,0.16,0.02c0.5,0,0.86-0.54,0.62-1.02l-1.55-3.03
			C32.85,29.26,32.61,29.13,32.36,29.13L32.36,29.13z"/>
	</g>
	<g>
		<path fill="#F39189" d="M17.55,22.15c-0.17,0-0.32-0.09-0.4-0.25l-1.55-3.03c-0.07-0.14-0.07-0.3,0.02-0.44
			c0.08-0.14,0.22-0.22,0.38-0.22c0.04,0,0.07,0,0.11,0.01L19.42,19c0.15,0.04,0.27,0.14,0.32,0.29c0.05,0.15,0.03,0.3-0.07,0.43
			c-0.85,0.56-1.48,1.36-1.81,2.34C17.82,22.09,17.69,22.15,17.55,22.15L17.55,22.15z"/>
		<path d="M16,18.47c0.02,0,0.03,0,0.05,0.01l3.31,0.77c0.09,0.02,0.13,0.09,0.14,0.13c0.01,0.03,0.02,0.08,0,0.14
			c-0.88,0.61-1.49,1.4-1.84,2.35c-0.04,0.03-0.08,0.04-0.11,0.04c-0.04,0-0.13-0.01-0.18-0.11l-1.55-3.03
			c-0.04-0.08-0.02-0.15,0.01-0.19C15.85,18.54,15.9,18.47,16,18.47 M16,17.97c-0.5,0-0.86,0.54-0.62,1.02l1.55,3.03
			c0.13,0.25,0.37,0.38,0.62,0.38c0.2,0,0.41-0.09,0.55-0.27c0.3-0.89,0.87-1.66,1.77-2.26c0.31-0.4,0.1-1-0.39-1.11l-3.31-0.77
			C16.11,17.98,16.05,17.97,16,17.97L16,17.97z"/>
	</g>
</g>
</svg>
